<svg width="21" height="18" fill="none" xmlns="http://www.w3.org/2000/svg"><path opacity=".2" d="M20.1884 6.85716h-3.5507L13.1884.380944c-.2029-.38095261-.6087-.4761791-1.0145-.2857028-.4058.1904758-.5072.5714288-.3043.9523788l3.1449 5.80954H5.7826l3.14493-5.80954c.2029-.38095.00001-.761903-.30433-.9523788-.4058-.1904763-.8116-.0000117-1.0145.2857028L4.1594 6.85716H.811583C.405785 6.85716 0 7.14286 0 7.61905c0 .38095.304336.76189.811583.76189h.202907l.91304 2.85716c-.2029.0952-.30436.2857-.30436.5714 0 .381.30436.6667.71015.6667L4.05797 18H16.942l1.7247-5.5238c.4058 0 .7101-.2857.7101-.6667 0-.1905-.1014-.4762-.3043-.5714l.913-2.85716h.2029c.4058 0 .8116-.2857.8116-.76189 0-.47619-.4058-.76189-.8116-.76189zm-4.5652 9.61904H5.07247L3.85506 12.381H16.942l-1.3188 4.0952zm1.6232-5.5238H3.34782l-.81159-2.66667H18.058l-.8116 2.66667z" fill="#000"/></svg>