<svg width="16" height="30" fill="none" xmlns="http://www.w3.org/2000/svg"><path d="M12.3023 6.037c.9989 0 1.9978 0 2.6971-.31249.3996-.83331.5994-1.9791.5994-3.12489-.1998 0-.0999-.31249-.1998-.41665 0-.20833-.2997-.20833-.2997-.41666-.2997-.20832-.4995-.41665-.6993-.62497-.6992-.20833-1.3985-.31249-2.1976-.52082-.7992 0-1.898-.10416-2.59725.10417-2.59723 0-3.99574 1.14579-5.29435 2.49991 0 .10416-.00001.20832-.0999.20832-.59936 1.66661-.09989 3.74987-.19978 5.83313.09989.41665.09989 1.04165.19978 1.45825-.99893.3125-2.19765.4167-3.39637.5208-.29968.3125-.1998 1.1458-.1998 1.7708.0999.625.29969 1.1458.39958 1.6666.19979.2083.59936.4167.79915.5208.09989 0 .09989.1042.09989.1042.49947.3125 1.4984 0 2.29755.1042-.09989 2.0832.29968 4.0623 0 5.9372 0 .3125.29968.4167.19979.8333 0 1.0417-.09989 2.0833.19979 2.8124-.29968.5209-.49947 1.0417-.39958 1.875.09989 0 .0999.2083.0999.3125-.0999.5208.59936.2083.49946.7291.19979.5208-.39957.2083-.39957.5208v.9375c.49947.3125 1.4984.2083 2.29755.2083.89904-.4166 2.19766-.5208 2.79702-1.2499.49944.2083.89904 0 1.19874-.2084 0-.3125.2997-.3125.1998-.7291 0-.3125-.1998-.5208-.0999-.9375v-3.0207c-.1998-2.3957 0-5.104-.2997-7.4997.899-.1042 1.898-.1042 2.5972-.4167.3996-.5208.3996-1.2499.4995-1.9791.1998-.2083.1998-.625.1998-1.0416.1998-.2083.0999-.7291.0999-1.1458-.0999-.625-.1998-1.35411-.7992-1.45827-.899-.20833-1.9979.62497-2.9968.31247 0-1.14578-.29966-2.39574 0-3.54153.7992-.20832 1.4984-.41665 2.1977-.62497zm-3.79598 4.9998c.0999.3125.29968.5208.39958.7292.09989 0 .19978 0 .19978.1041 1.19872.1042 2.19762-.1041 3.09672-.3125 0 1.0417-.2997 1.7708-.4995 2.6041-.6992 0-1.4984.3125-1.99786.2083-.29968.2084-.39957.5208-.59936.7292 0 .4166.09989.5208 0 .8333-.19979.1041-.09989.625-.19978.8333v1.5624c.09989.3125-.0999.3125-.0999.5208v3.6457c-.0999.3125.0999.3125.0999.5209v3.1248c.09989.3125-.0999.8333.09989.9375-.09989.4167-.39958 0-.79915.1042-.49947.1041-.89904.4166-1.4984.4166.09989-.4166.29968-.625.29968-1.1458 0-.4166-.39957-.3125-.49947-.5208.19979-.625.59936-1.1458.69925-1.8749.19979-.5208.69926-1.3541.29969-1.875-.49947-.1041-.49947.3125-.79915.4167 0 .1042 0 .2083-.0999.2083 0 .1042.00001.2084-.09989.2084 0 .1041-.19978.1041 0 0 0-.1042 0-.2084.09989-.2084 0-.1041 0-.2083.0999-.2083v-.3125c.39957-.625.69925-1.2499.79915-2.0832.19978-.3125.29968-.7292.39957-1.0417.19979-.3125.29968-.9374.09989-1.2499-.49946 0-.79914.3125-.89904.7291-.29968-.2083.19979-.4166.09989-.7291.0999-.2084.19979-.625.29969-.8333.19978-.4167.59936-1.3542 0-1.6666-.39958 0-.59936.2083-.69926.5208-.19978.2083-.39957.4166-.49946.7291-.39958-.1041-.0999-.7291-.19979-1.1458-.0999-.5208.09989-.9374 0-1.2499-.59936-.8333-1.99787-.1042-3.19659-.3125-.0999-.3125-.19979-1.0417-.0999-1.25.99894-.1041 2.49734.2083 3.1966-.2083 0-.1042-.00001-.2083.09989-.2083.09989-.7292-.29968-1.0417-.49947-1.4583.19979-.83331 0-2.08327.09989-3.1249.19979-.10416.29968-.41665.49947-.62497.09989-1.04163.69925-1.56245.69925-2.60408-.29968 0-.59935-.10416-.59935.20833-.29969-.10416-.39958.52081-.49947.20832-.0999-.52081.19978-.62498.29968-1.04163.59936-.41665 1.19872-.8333 1.89797-1.24995 1.69819-.20832 4.59515-.41665 6.09355.20832.0998.62498-.2997.93747-.1998 1.56245h-1.4984c-1.0989.20832-1.9979.72914-2.99684 1.04163-.19978.10416-.29968.31249-.49946.41665 0 .41665-.19979.62498-.29969 1.04163-.29968 1.45828-.09989 2.70824-.09989 4.1665z" fill="#000"/></svg>