<svg width="23" height="22" fill="none" xmlns="http://www.w3.org/2000/svg"><path d="M22.6 12.7c0-2.4-.3-4.8-.3-7.1l-.2-2.3-.2-1.1c-.3-.2-.2-.6-.5-.8-.4-.2-1.2-.1-1.7-.2L17.8 1l-6-.1c-2 0-4-.1-5.7-.4H3.7c-.6 0-1.1.3-1.6.4l-.7.3c-.1.2-.5 0-.6.4-.2.2.2.5 0 .6V3c.2 0 0 .6.1.8v1L1 8.6c.5 2.8.4 6.5.1 9.4.2.6.4 1 .5 1.7.3.5.3 1 .7 1.5.5.2 1.2.2 1.9.2.4 0 .7.3 1.1.3 2.8-.2 5.5-.2 8.4-.2 2.7.2 5.8.2 8.3-.2.2-.1.1-.5.2-.8-.1-.4.2-.4.2-.8.2-2.1.2-4.5.2-7zm-13-6.2c.8-.2 1.5-.3 2.4-.3.7 0 1.3.3 1.9.5.1.2-.2.5.2.7h.2c.4 0 .8.3 1.1.5.5 0 .5.5 1.1.4l-.1.8c.3 1.2.5 2.8.3 4.3-.2.2-.2.4-.3.7-.3.3-.5.8-.8 1-.1.3-.3.5-.5.6-.1.2-.2.5-.5.5-.3.2-.6 0-.8-.1-.4.2-.9.3-1.2.6l-2.4-.3c-.2-.1-.5-.3-.8-.3l-.8-.5-.5-.2c-.2 0-.2-.2-.5-.2-.1-.4-.4-.6-.5-1.1l-.5-1.2c0-1.4.1-2.7.4-3.8l1.1-1.7c.2 0 .4-.1.4-.3l.7-.1c.2 0 .2-.3.4-.5zM7.9 3.8l-.1-1.1c0-.3.3-.3.3-.5L7.9 2c.1-.1.7-.1.8 0 .1.5-.4.5-.5.7 0 .2.3 0 .5 0v2.3h-.5c0 .2.2.2.5.2-.1.3.1.4.1.6-.2.2-.7 0-1.1 0 0-.5.3-1.3.2-2.1zm-.7-1.6h.2c.2.4 0 .8-.1 1-.2-.2 0-.7-.1-1zM7.4 4c-.1-.1-.2-.2-.2-.5.2 0 .2.3.2.5zm0 1.4l-.1-.2c.1-.1.1 0 .1.2zm-.2.2c.2 0 .1.2.2.2 0 .2-.3.2-.4 0l.2-.2zM4.9 4.4l-.1-.2v-2c.3-.2.8 0 1.1-.1v1c-.1.2-.2.2-.4.2-.1.3.3 0 .4.3 0 .9-.1 1.8.2 2.4H4.7c.1-.5 0-1.3.5-1.5l-.3-.1zm-.5 0c-.2 0-.2-.5-.1-.6.3 0 .2.5.1.6zm-.2 1l.1-.7c.2 0 .2.8-.1.7zm.2-2.1c-.3 0-.3-.3-.2-.4.3 0 .4.3.2.4zm0-1.1l-.1.3c-.2 0-.1-.2-.2-.2l.3-.1zm-.2 3.7c.1 0 .1.3-.1.2l.1-.2zm-.7-3.7c0 .3-.4.3-.4 0h.4zm-1 0c0 .3-.3.3-.4.5-.2-.2.1-.5.4-.4zm-.4.8l.7-.6.1-.2h.2c.1.4-.3.3-.3.5l-.1.2.1 1c-.3 0-.3.3-.6.2 0-.4-.2-.6-.1-1.1zm.1 3.3V4.7l.6-.5c.3.5.2 1.4.5 1.9-.4 0-.8 0-1.1.2zm18.2 11l-.4 2.9c-2.9 0-6 0-8.9.2-.2 0-.3 0-.2-.2-.3 0-.3.2-.5.2.2-.3.4-1 .2-1.3-.8 0-.8.8-1.1 1.3H7.7c.2-.6.7-1 .9-1.6-.4-.5-1 0-1.2.5l-.8 1.3h-1l.8-1.4c.2-.5.6-.7.7-1.4-.2-.3-.4 0-.7 0l-.4.5-.7 1c-.2.3-.3 0-.5.3l-1 1c-.2-.1 0-.4.2-.4 0-.2-.1-.5.1-.6l.4-1c.1-.6.5-1.1.7-1.8-.6 0-.7.6-1 1L3.5 19c-.2-.1 0-.6-.1-.8l.4-1.7.2-.8c.2-.2 0-.6-.1-.8-.2 0-.4 0-.5.3-.2 0-.2.5-.3.3 0-2.6-.5-4.8-.5-7.4l-.2-.7c1.6 0 3.1 0 4.8.2l-.3.4-.4.3c-.6 1.7-1 4-.6 6.2.2.6.6 1 1 1.4l2.5 1.7c1.7.4 3.8.4 5.5 0l.7-.4c1.4-1.2 2.8-2.5 3-5V11c-.2-1.6-.7-3-1.7-3.6.3-.2 1.1 0 1.7 0H20.7l.2.9-.2 5 .2 1.5-.5 2.6zm.4-11.1l-1.9-.4c.1-.3.8 0 1-.2.4-.2.3-1 .3-1.5l.1-1.1c-.4-1-1.8-.4-2.9-.5a6 6 0 00-.3 2.7c.2.5 1 .3 1.5.5-.1.3-.7 0-1 0l-1-.1c-2.3 0-4.3 0-6.5.2.1-1.2.1-2.5-.1-3.6h3.1c-.3.4-.9.5-1.3.8-.4.2-.9.5-1.1.9l.8-.4c.4-.1.5-.4.8-.5.4-.4 1.1-.6 1.7-1 .4 0 .7 0 1 .2h3.8l2 .4.3.9-.3 2.7zm-5.9-3.7c.1-.1 0-.1 0 0zm0 0c-.5.2-1 .3-1.4.7.5-.2 1.1-.3 1.4-.7zM16 3c.1-.1 0-.1 0 0zm-1.8.9c.7-.2 1.2-.6 1.7-1-.4 0-.6.4-1 .5-.1.2-.5.2-.7.5zm-.7-.8c-.1 0 .1 0 0 0zm-.6.6c.1-.1 0-.1 0 0zm-.1 0c.1 0 .1 0 0 0zm-.1 0c.1 0 .1 0 0 0zm-.8.7c.3-.1.6-.3.8-.6l-.8.6zm2.3 1c.5 0 .7-.4 1.2-.5.3-.3.8-.4 1-.8-.6 0-.8.4-1.2.5-.3.4-.8.5-1 .8zm-2.3-1c-.3 0 0 .3 0 0zm-.6.4c.1 0 .2 0 0 0 .1-.1 0 0 0 0zm2.9.6c-.2 0 0 0 0 0zM13 7.3c-.2-.2-.7-.2-1-.4-.7 0-1.2 0-1.7.2l-.9.5c-.3.2-.4.4-.8.5-.2.2-.4.5-.7.6 0 .2-.2.3-.3.4l-.2.4-.1.3c.1 1.5.3 2.9.7 4.2.3.6 1 .8 1.4 1.3.6.3 1.3.4 2.1.5l.9-.1a5 5 0 002.8-1.4l.5-.7c-.3-.7.3-1.1.5-1.6 0-1.3-.2-2.5-.6-3.4-.3-.6-.9-.8-1.4-1.1l-.2-.1c-.2-.1-.7-.2-1-.1zm-3.4 4.4l-.2-.4c.3-.1.2.2.2.4zm.1.3c0-.1.1 0 0 0 0 .2 0 0 0 0zm.4-2.1c0-.1.1 0 0 0 .1 0 0 0 0 0zm1.7-2.1c-.2.3 0 .6.1.8-.3 0-.6-.8-.1-.8zm.4 3.9c-.1 0 0 0 0 0 .1 0 0 0 0 0zm.7 2.9c0-.1.1 0 .2 0h-.2zm2.2-2.5c-.2-.1-.1.2-.4.2l.2-.5c.2 0 .3 0 .2.3zM14 8.3c.2 0 .4.2.6.4l.4.5.2 2.4c-.3 0-.4.3-.7.4-.8 0-1.4-.2-1.9-.5l-.5-.8V9.6l.5-.6c.2-.1.5-.2.5-.6l-.1-.2.4.2c.2 0 .3-.2.6-.1z" fill="#000"/></svg>