<svg width="60" height="61" fill="none" xmlns="http://www.w3.org/2000/svg"><path opacity=".5" d="M0 44.7L27.4 61V37.2L0 20.8v24zm51.3-32v2.6c0 1.8-3.5 3.3-7.7 3.3-4.3 0-7.7-1.5-7.7-3.4v-4.1c.3 1.7 3.6 3.1 7.7 3.1 4.3 0 7.7-1.5 7.7-3.4 0-1.8-3.5-3.3-7.7-3.3h-1l-5-3v3.2c0 1.8-3.5 3.4-7.7 3.4-2.7 0-5-.7-6.4-1.6l-.7-.6c-.4-.4-.6-.8-.6-1.2v-3l-4.8 2.8h-1.1C12 7.5 8.6 9 8.6 10.8c0 1.9 3.5 3.4 7.7 3.4 4.1 0 7.4-1.4 7.7-3.1v4.2c0 1.8-3.5 3.3-7.7 3.3-4.3 0-7.7-1.5-7.7-3.4v-2.4l-6 3.6 27.5 16.4 27.4-16.3-6.2-3.8zM37.7 23c0 1.9-3.5 3.4-7.7 3.4-4.3 0-7.7-1.5-7.7-3.4V19c.3 1.8 3.6 3.2 7.7 3.2s7.4-1.4 7.7-3.2v4.2zm-5.1 14.3V61L60 44.7V21.1L32.6 37.4zM29.9 6.8c4.3 0 7.7-1.6 7.7-3.4 0-1.9-3.5-3.4-7.7-3.4-4.3 0-7.7 1.5-7.7 3.4 0 1.8 3.4 3.4 7.7 3.4z" fill="#149080"/></svg>